<svg xmlns="http://www.w3.org/2000/svg" xmlns:xlink="http://www.w3.org/1999/xlink" contentStyleType="text/css" height="482px" preserveAspectRatio="none" style="width:227px;height:482px;background:#FFFFFF;" version="1.1" viewBox="0 0 227 482" width="227px" zoomAndPan="magnify"><defs/><g><ellipse cx="49.5" cy="16" fill="#222222" rx="10" ry="10" style="stroke:#222222;stroke-width:1.0;"/><rect fill="#F1F1F1" height="40" rx="12.5" ry="12.5" style="stroke:#181818;stroke-width:0.5;" width="85.2773" x="7" y="103"/><text fill="#000000" font-family="sans-serif" font-size="14" lengthAdjust="spacing" textLength="75.2773" x="12" y="127.8467">EnAutob&#250;s</text><rect fill="#F1F1F1" height="40" rx="12.5" ry="12.5" style="stroke:#181818;stroke-width:0.5;" width="60.3877" x="19.5" y="220"/><text fill="#000000" font-family="sans-serif" font-size="14" lengthAdjust="spacing" textLength="50.3877" x="24.5" y="244.8467">EnRuta</text><rect fill="#F1F1F1" height="40" rx="12.5" ry="12.5" style="stroke:#181818;stroke-width:0.5;" width="70.8125" x="14" y="337"/><text fill="#000000" font-family="sans-serif" font-size="14" lengthAdjust="spacing" textLength="60.8125" x="19" y="361.8467">Pagando</text><ellipse cx="49.5" cy="465" fill="none" rx="11" ry="11" style="stroke:#222222;stroke-width:1.0;"/><ellipse cx="49.5" cy="465" fill="#222222" rx="6" ry="6" style="stroke:#222222;stroke-width:1.0;"/><!--link *start* to EnAutob?s--><g id="link_*start*_EnAutob&#250;s"><path d="M49.5,26.32 C49.5,43.38 49.5,73.98 49.5,96.64 " fill="none" id="*start*-to-EnAutob&#250;s" style="stroke:#181818;stroke-width:1.0;"/><polygon fill="#181818" points="49.5,102.64,53.5,93.64,49.5,97.64,45.5,93.64,49.5,102.64" style="stroke:#181818;stroke-width:1.0;"/><text fill="#000000" font-family="sans-serif" font-size="13" lengthAdjust="spacing" textLength="148.002" x="50.5" y="69.0669">pasajero coge autob&#250;s</text></g><!--link EnAutob?s to EnRuta--><g id="link_EnAutob&#250;s_EnRuta"><path d="M49.5,143.25 C49.5,164.48 49.5,192.44 49.5,213.69 " fill="none" id="EnAutob&#250;s-to-EnRuta" style="stroke:#181818;stroke-width:1.0;"/><polygon fill="#181818" points="49.5,219.69,53.5,210.69,49.5,214.69,45.5,210.69,49.5,219.69" style="stroke:#181818;stroke-width:1.0;"/><text fill="#000000" font-family="sans-serif" font-size="13" lengthAdjust="spacing" textLength="168.5493" x="50.5" y="186.0669">espera llegar a su destino</text></g><!--link EnRuta to Pagando--><g id="link_EnRuta_Pagando"><path d="M49.5,260.25 C49.5,281.48 49.5,309.44 49.5,330.69 " fill="none" id="EnRuta-to-Pagando" style="stroke:#181818;stroke-width:1.0;"/><polygon fill="#181818" points="49.5,336.69,53.5,327.69,49.5,331.69,45.5,327.69,49.5,336.69" style="stroke:#181818;stroke-width:1.0;"/><text fill="#000000" font-family="sans-serif" font-size="13" lengthAdjust="spacing" textLength="163.1348" x="50.5" y="303.0669">llega a su destino y paga</text></g><!--link Pagando to *end*--><g id="link_Pagando_*end*"><path d="M49.5,377.44 C49.5,400.03 49.5,430.45 49.5,447.96 " fill="none" id="Pagando-to-*end*" style="stroke:#181818;stroke-width:1.0;"/><polygon fill="#181818" points="49.5,453.96,53.5,444.96,49.5,448.96,45.5,444.96,49.5,453.96" style="stroke:#181818;stroke-width:1.0;"/><text fill="#000000" font-family="sans-serif" font-size="13" lengthAdjust="spacing" textLength="127.3467" x="50.5" y="420.0669">se baja del autob&#250;s</text></g><!--SRC=[LSun3i8m40J0tg_O6YaVI854GOze4SKbFXb7ncVvd29VIyl7i24Wg7TMkpTl6NnFPO5b7RDFnKiqvhAxeklsECR3N6Huh8eUYPGcpe9H78EsmFoOT-Ky5wgSDN4cXC2ECWWwjutYevZDD7uYHz5AzI_uvx3KJKVcOvflpteeOw29AWpV8qy0]--></g></svg>