<svg xmlns="http://www.w3.org/2000/svg" xmlns:xlink="http://www.w3.org/1999/xlink" contentStyleType="text/css" height="627px" preserveAspectRatio="none" style="width:533px;height:627px;background:#FFFFFF;" version="1.1" viewBox="0 0 533 627" width="533px" zoomAndPan="magnify"><defs/><g><g id="elem_Vehiculo"><rect fill="#F1F1F1" height="44.5938" style="stroke:#181818;stroke-width:0.5;" width="83.5586" x="279.5" y="7"/><text fill="#000000" font-family="sans-serif" font-size="14" lengthAdjust="spacing" textLength="59.9785" x="291.29" y="21.9951">Vehiculo</text><line style="stroke:#181818;stroke-width:0.5;" x1="280.5" x2="362.0586" y1="27.2969" y2="27.2969"/><ellipse cx="290.5" cy="40.9453" fill="none" rx="3" ry="3" style="stroke:#038048;stroke-width:1.0;"/><text fill="#000000" font-family="sans-serif" font-size="14" lengthAdjust="spacing" textLength="57.5586" x="299.5" y="44.292">Autob&#250;s</text></g><g id="elem_Conductor"><rect fill="#F1F1F1" height="60.8906" style="stroke:#181818;stroke-width:0.5;" width="198.8398" x="7" y="129"/><text fill="#000000" font-family="sans-serif" font-size="14" lengthAdjust="spacing" textLength="72.4814" x="70.1792" y="143.9951">Conductor</text><line style="stroke:#181818;stroke-width:0.5;" x1="8" x2="204.8398" y1="149.2969" y2="149.2969"/><ellipse cx="18" cy="162.9453" fill="none" rx="3" ry="3" style="stroke:#038048;stroke-width:1.0;"/><text fill="#000000" font-family="sans-serif" font-size="14" lengthAdjust="spacing" textLength="167.4805" x="27" y="166.292">2 conductores turno d&#237;a</text><ellipse cx="18" cy="179.2422" fill="none" rx="3" ry="3" style="stroke:#038048;stroke-width:1.0;"/><text fill="#000000" font-family="sans-serif" font-size="14" lengthAdjust="spacing" textLength="172.8398" x="27" y="182.5889">1 conductor turno noche</text></g><g id="elem_Ruta"><rect fill="#F1F1F1" height="44.5938" style="stroke:#181818;stroke-width:0.5;" width="160.5518" x="241" y="137"/><text fill="#000000" font-family="sans-serif" font-size="14" lengthAdjust="spacing" textLength="32.6689" x="304.9414" y="151.9951">Ruta</text><line style="stroke:#181818;stroke-width:0.5;" x1="242" x2="400.5518" y1="157.2969" y2="157.2969"/><ellipse cx="252" cy="170.9453" fill="none" rx="3" ry="3" style="stroke:#038048;stroke-width:1.0;"/><text fill="#000000" font-family="sans-serif" font-size="14" lengthAdjust="spacing" textLength="134.5518" x="261" y="174.292">Santander-Astillero</text></g><g id="elem_Incidencia"><rect fill="#F1F1F1" height="60.8906" style="stroke:#181818;stroke-width:0.5;" width="85.1279" x="437" y="129"/><text fill="#000000" font-family="sans-serif" font-size="14" lengthAdjust="spacing" textLength="71.1279" x="444" y="143.9951">Incidencia</text><line style="stroke:#181818;stroke-width:0.5;" x1="438" x2="521.1279" y1="149.2969" y2="149.2969"/><ellipse cx="448" cy="162.9453" fill="none" rx="3" ry="3" style="stroke:#038048;stroke-width:1.0;"/><text fill="#000000" font-family="sans-serif" font-size="14" lengthAdjust="spacing" textLength="44.7002" x="457" y="166.292">Aver&#237;a</text><ellipse cx="448" cy="179.2422" fill="none" rx="3" ry="3" style="stroke:#038048;stroke-width:1.0;"/><text fill="#000000" font-family="sans-serif" font-size="14" lengthAdjust="spacing" textLength="47.9678" x="457" y="182.5889">Tr&#225;fico</text></g><g id="elem_Horario"><rect fill="#F1F1F1" height="60.8906" style="stroke:#181818;stroke-width:0.5;" width="111.7363" x="344.5" y="267"/><text fill="#000000" font-family="sans-serif" font-size="14" lengthAdjust="spacing" textLength="51.6387" x="374.5488" y="281.9951">Horario</text><line style="stroke:#181818;stroke-width:0.5;" x1="345.5" x2="455.2363" y1="287.2969" y2="287.2969"/><ellipse cx="355.5" cy="300.9453" fill="none" rx="3" ry="3" style="stroke:#038048;stroke-width:1.0;"/><text fill="#000000" font-family="sans-serif" font-size="14" lengthAdjust="spacing" textLength="85.7363" x="364.5" y="304.292">8:00 - 22:00</text><ellipse cx="355.5" cy="317.2422" fill="none" rx="3" ry="3" style="stroke:#038048;stroke-width:1.0;"/><text fill="#000000" font-family="sans-serif" font-size="14" lengthAdjust="spacing" textLength="85.7363" x="364.5" y="320.5889">23:30 - 5:30</text></g><g id="elem_Servicio"><rect fill="#F1F1F1" height="60.8906" style="stroke:#181818;stroke-width:0.5;" width="90.292" x="355.5" y="405"/><text fill="#000000" font-family="sans-serif" font-size="14" lengthAdjust="spacing" textLength="55.583" x="372.8545" y="419.9951">Servicio</text><line style="stroke:#181818;stroke-width:0.5;" x1="356.5" x2="444.792" y1="425.2969" y2="425.2969"/><ellipse cx="366.5" cy="438.9453" fill="none" rx="3" ry="3" style="stroke:#038048;stroke-width:1.0;"/><text fill="#000000" font-family="sans-serif" font-size="14" lengthAdjust="spacing" textLength="46.7373" x="375.5" y="442.292">Diurno</text><ellipse cx="366.5" cy="455.2422" fill="none" rx="3" ry="3" style="stroke:#038048;stroke-width:1.0;"/><text fill="#000000" font-family="sans-serif" font-size="14" lengthAdjust="spacing" textLength="64.292" x="375.5" y="458.5889">Nocturno</text></g><g id="elem_Tarifa"><rect fill="#F1F1F1" height="77.1875" style="stroke:#181818;stroke-width:0.5;" width="252.1328" x="274.5" y="543"/><text fill="#000000" font-family="sans-serif" font-size="14" lengthAdjust="spacing" textLength="40.2842" x="380.4243" y="557.9951">Tarifa</text><line style="stroke:#181818;stroke-width:0.5;" x1="275.5" x2="525.6328" y1="563.2969" y2="563.2969"/><ellipse cx="285.5" cy="576.9453" fill="none" rx="3" ry="3" style="stroke:#038048;stroke-width:1.0;"/><text fill="#000000" font-family="sans-serif" font-size="14" lengthAdjust="spacing" textLength="95.9971" x="294.5" y="580.292">Diurna: 1,20&#8364;</text><ellipse cx="285.5" cy="593.2422" fill="none" rx="3" ry="3" style="stroke:#038048;stroke-width:1.0;"/><text fill="#000000" font-family="sans-serif" font-size="14" lengthAdjust="spacing" textLength="113.5518" x="294.5" y="596.5889">Nocturna: 1,60&#8364;</text><ellipse cx="285.5" cy="609.5391" fill="none" rx="3" ry="3" style="stroke:#038048;stroke-width:1.0;"/><text fill="#000000" font-family="sans-serif" font-size="14" lengthAdjust="spacing" textLength="226.1328" x="294.5" y="612.8857">Abono transporte: pagas el 50%</text></g><!--link Vehiculo to Conductor--><g id="link_Vehiculo_Conductor"><path codeLine="30" d="M285.03,52.21 C249.57,73.33 200.5957,102.481 161.2357,125.911 " fill="none" id="Vehiculo-to-Conductor" style="stroke:#181818;stroke-width:1.0;"/><polygon fill="#181818" points="156.08,128.98,165.8595,127.8136,160.3764,126.4225,161.7675,120.9393,156.08,128.98" style="stroke:#181818;stroke-width:1.0;"/><text fill="#000000" font-family="sans-serif" font-size="13" lengthAdjust="spacing" textLength="54.8311" x="234.5" y="95.0669">necesita</text></g><!--link Vehiculo to Ruta--><g id="link_Vehiculo_Ruta"><path codeLine="31" d="M321.5,52.21 C321.5,75.75 321.5,107.1 321.5,130.68 " fill="none" id="Vehiculo-to-Ruta" style="stroke:#181818;stroke-width:1.0;"/><polygon fill="#181818" points="321.5,136.68,325.5,127.68,321.5,131.68,317.5,127.68,321.5,136.68" style="stroke:#181818;stroke-width:1.0;"/><text fill="#000000" font-family="sans-serif" font-size="13" lengthAdjust="spacing" textLength="77.4541" x="322.5" y="95.0669">se le asigna</text></g><!--link Vehiculo to Incidencia--><g id="link_Vehiculo_Incidencia"><path codeLine="32" d="M363.38,52.04 C378.25,60.51 394.7,70.87 408.5,82 C425.71,95.88 438.7191,109.3583 451.7291,124.4283 " fill="none" id="Vehiculo-to-Incidencia" style="stroke:#181818;stroke-width:1.0;"/><polygon fill="#181818" points="455.65,128.97,452.7965,119.5436,452.3826,125.1853,446.7409,124.7714,455.65,128.97" style="stroke:#181818;stroke-width:1.0;"/><text fill="#000000" font-family="sans-serif" font-size="13" lengthAdjust="spacing" textLength="79.5488" x="427.5" y="95.0669">puede tener</text></g><!--link Incidencia to Horario--><g id="link_Incidencia_Horario"><path codeLine="33" d="M462.36,190.01 C449.2,212.67 434.1136,238.6317 420.8936,261.3917 " fill="none" id="Incidencia-to-Horario" style="stroke:#181818;stroke-width:1.0;"/><polygon fill="#181818" points="417.88,266.58,425.8592,260.8066,420.3913,262.2564,418.9415,256.7885,417.88,266.58" style="stroke:#181818;stroke-width:1.0;"/><text fill="#000000" font-family="sans-serif" font-size="13" lengthAdjust="spacing" textLength="56.4624" x="446.5" y="233.0669">afecta al</text></g><!--link Ruta to Horario--><g id="link_Ruta_Horario"><path codeLine="34" d="M334.02,182.05 C347.33,204.97 365.467,236.1814 380.327,261.7714 " fill="none" id="Ruta-to-Horario" style="stroke:#181818;stroke-width:1.0;"/><polygon fill="#181818" points="383.34,266.96,382.2796,257.1684,380.8292,262.6361,375.3614,261.1857,383.34,266.96" style="stroke:#181818;stroke-width:1.0;"/><text fill="#000000" font-family="sans-serif" font-size="13" lengthAdjust="spacing" textLength="32.9443" x="367.5" y="233.0669">tiene</text></g><!--link Horario to Servicio--><g id="link_Horario_Servicio"><path codeLine="35" d="M400.5,328.01 C400.5,350.67 400.5,375.82 400.5,398.58 " fill="none" id="Horario-to-Servicio" style="stroke:#181818;stroke-width:1.0;"/><polygon fill="#181818" points="400.5,404.58,404.5,395.58,400.5,399.58,396.5,395.58,400.5,404.58" style="stroke:#181818;stroke-width:1.0;"/><text fill="#000000" font-family="sans-serif" font-size="13" lengthAdjust="spacing" textLength="71.6079" x="401.5" y="371.0669">dividido en</text></g><!--link Servicio to Tarifa--><g id="link_Servicio_Tarifa"><path codeLine="36" d="M400.5,466.34 C400.5,488.5 400.5,512.88 400.5,536.74 " fill="none" id="Servicio-to-Tarifa" style="stroke:#181818;stroke-width:1.0;"/><polygon fill="#181818" points="400.5,542.74,404.5,533.74,400.5,537.74,396.5,533.74,400.5,542.74" style="stroke:#181818;stroke-width:1.0;"/><text fill="#000000" font-family="sans-serif" font-size="13" lengthAdjust="spacing" textLength="32.9443" x="401.5" y="509.0669">tiene</text></g><!--SRC=[NP6nJiCm48PtFyKjJ12fJLM4CY15CC32G2lsgtrj3mKxifrA2B7m9kpm0gnz4vw4SzhKBKkSk_-xN-VVQpO4zDB6Lp0KjESsihFABPv9HtYYDUkkSM_g7EekkiNs9wZtGRrnrdGwEf_a4lHGKe3OUUl0RBzHf76Mze9rUatPwB6Bc3ncQ2DQGxweG-Ic8UyoT6-rx2gV7gqtv7VkSx_zNB8-8k-SHy_zqbVLQ0G5bAMSQSb9DKdrL8xCpyXlMEy6RZajA3yFJlUxPcmkfaiyG5Z1-A8S_NvyPRhlNUvxzSB9LQD76rhd8rNGuWe3K0FJqPdugY5UA8hhd2PKO4bJu8YdH8f9n43G463WbVq7v8W4QpkIfuraoQiZ8N7xW0J2fTmC0HlLcv-AaMLO3NNIXgH4DBnXmyO1MNLe9sONqp3-1m00]--></g></svg>