<svg xmlns="http://www.w3.org/2000/svg" xmlns:xlink="http://www.w3.org/1999/xlink" contentStyleType="text/css" height="562px" preserveAspectRatio="none" style="width:360px;height:562px;background:#FFFFFF;" version="1.1" viewBox="0 0 360 562" width="360px" zoomAndPan="magnify"><defs/><g><!--class Vehiculo--><g id="elem_Vehiculo"><rect codeLine="2" fill="#F1F1F1" height="48" id="Vehiculo" rx="2.5" ry="2.5" style="stroke:#181818;stroke-width:0.5;" width="91.9785" x="133" y="7"/><ellipse cx="148" cy="23" fill="#ADD1B2" rx="11" ry="11" style="stroke:#181818;stroke-width:1.0;"/><path d="M150.9688,28.6406 Q150.3906,28.9375 149.75,29.0781 Q149.1094,29.2344 148.4063,29.2344 Q145.9063,29.2344 144.5781,27.5938 Q143.2656,25.9375 143.2656,22.8125 Q143.2656,19.6875 144.5781,18.0313 Q145.9063,16.375 148.4063,16.375 Q149.1094,16.375 149.75,16.5313 Q150.4063,16.6875 150.9688,16.9844 L150.9688,19.7031 Q150.3438,19.125 149.75,18.8594 Q149.1563,18.5781 148.5313,18.5781 Q147.1875,18.5781 146.5,19.6563 Q145.8125,20.7188 145.8125,22.8125 Q145.8125,24.9063 146.5,25.9844 Q147.1875,27.0469 148.5313,27.0469 Q149.1563,27.0469 149.75,26.7813 Q150.3438,26.5 150.9688,25.9219 L150.9688,28.6406 Z " fill="#000000"/><text fill="#000000" font-family="sans-serif" font-size="14" lengthAdjust="spacing" textLength="59.9785" x="162" y="27.8467">Vehiculo</text><line style="stroke:#181818;stroke-width:0.5;" x1="134" x2="223.9785" y1="39" y2="39"/><line style="stroke:#181818;stroke-width:0.5;" x1="134" x2="223.9785" y1="47" y2="47"/></g><!--class Conductor--><g id="elem_Conductor"><rect codeLine="5" fill="#F1F1F1" height="48" id="Conductor" rx="2.5" ry="2.5" style="stroke:#181818;stroke-width:0.5;" width="104.4814" x="7" y="132"/><ellipse cx="22" cy="148" fill="#ADD1B2" rx="11" ry="11" style="stroke:#181818;stroke-width:1.0;"/><path d="M24.9688,153.6406 Q24.3906,153.9375 23.75,154.0781 Q23.1094,154.2344 22.4063,154.2344 Q19.9063,154.2344 18.5781,152.5938 Q17.2656,150.9375 17.2656,147.8125 Q17.2656,144.6875 18.5781,143.0313 Q19.9063,141.375 22.4063,141.375 Q23.1094,141.375 23.75,141.5313 Q24.4063,141.6875 24.9688,141.9844 L24.9688,144.7031 Q24.3438,144.125 23.75,143.8594 Q23.1563,143.5781 22.5313,143.5781 Q21.1875,143.5781 20.5,144.6563 Q19.8125,145.7188 19.8125,147.8125 Q19.8125,149.9063 20.5,150.9844 Q21.1875,152.0469 22.5313,152.0469 Q23.1563,152.0469 23.75,151.7813 Q24.3438,151.5 24.9688,150.9219 L24.9688,153.6406 Z " fill="#000000"/><text fill="#000000" font-family="sans-serif" font-size="14" lengthAdjust="spacing" textLength="72.4814" x="36" y="152.8467">Conductor</text><line style="stroke:#181818;stroke-width:0.5;" x1="8" x2="110.4814" y1="164" y2="164"/><line style="stroke:#181818;stroke-width:0.5;" x1="8" x2="110.4814" y1="172" y2="172"/></g><!--class Ruta--><g id="elem_Ruta"><rect codeLine="8" fill="#F1F1F1" height="48" id="Ruta" rx="2.5" ry="2.5" style="stroke:#181818;stroke-width:0.5;" width="64.6689" x="146.5" y="132"/><ellipse cx="161.5" cy="148" fill="#ADD1B2" rx="11" ry="11" style="stroke:#181818;stroke-width:1.0;"/><path d="M164.4688,153.6406 Q163.8906,153.9375 163.25,154.0781 Q162.6094,154.2344 161.9063,154.2344 Q159.4063,154.2344 158.0781,152.5938 Q156.7656,150.9375 156.7656,147.8125 Q156.7656,144.6875 158.0781,143.0313 Q159.4063,141.375 161.9063,141.375 Q162.6094,141.375 163.25,141.5313 Q163.9063,141.6875 164.4688,141.9844 L164.4688,144.7031 Q163.8438,144.125 163.25,143.8594 Q162.6563,143.5781 162.0313,143.5781 Q160.6875,143.5781 160,144.6563 Q159.3125,145.7188 159.3125,147.8125 Q159.3125,149.9063 160,150.9844 Q160.6875,152.0469 162.0313,152.0469 Q162.6563,152.0469 163.25,151.7813 Q163.8438,151.5 164.4688,150.9219 L164.4688,153.6406 Z " fill="#000000"/><text fill="#000000" font-family="sans-serif" font-size="14" lengthAdjust="spacing" textLength="32.6689" x="175.5" y="152.8467">Ruta</text><line style="stroke:#181818;stroke-width:0.5;" x1="147.5" x2="210.1689" y1="164" y2="164"/><line style="stroke:#181818;stroke-width:0.5;" x1="147.5" x2="210.1689" y1="172" y2="172"/></g><!--class Incidencia--><g id="elem_Incidencia"><rect codeLine="11" fill="#F1F1F1" height="48" id="Incidencia" rx="2.5" ry="2.5" style="stroke:#181818;stroke-width:0.5;" width="103.1279" x="246.5" y="132"/><ellipse cx="261.5" cy="148" fill="#ADD1B2" rx="11" ry="11" style="stroke:#181818;stroke-width:1.0;"/><path d="M264.4688,153.6406 Q263.8906,153.9375 263.25,154.0781 Q262.6094,154.2344 261.9063,154.2344 Q259.4063,154.2344 258.0781,152.5938 Q256.7656,150.9375 256.7656,147.8125 Q256.7656,144.6875 258.0781,143.0313 Q259.4063,141.375 261.9063,141.375 Q262.6094,141.375 263.25,141.5313 Q263.9063,141.6875 264.4688,141.9844 L264.4688,144.7031 Q263.8438,144.125 263.25,143.8594 Q262.6563,143.5781 262.0313,143.5781 Q260.6875,143.5781 260,144.6563 Q259.3125,145.7188 259.3125,147.8125 Q259.3125,149.9063 260,150.9844 Q260.6875,152.0469 262.0313,152.0469 Q262.6563,152.0469 263.25,151.7813 Q263.8438,151.5 264.4688,150.9219 L264.4688,153.6406 Z " fill="#000000"/><text fill="#000000" font-family="sans-serif" font-size="14" lengthAdjust="spacing" textLength="71.1279" x="275.5" y="152.8467">Incidencia</text><line style="stroke:#181818;stroke-width:0.5;" x1="247.5" x2="348.6279" y1="164" y2="164"/><line style="stroke:#181818;stroke-width:0.5;" x1="247.5" x2="348.6279" y1="172" y2="172"/></g><!--class Horario--><g id="elem_Horario"><rect codeLine="14" fill="#F1F1F1" height="48" id="Horario" rx="2.5" ry="2.5" style="stroke:#181818;stroke-width:0.5;" width="83.6387" x="196" y="257"/><ellipse cx="211" cy="273" fill="#ADD1B2" rx="11" ry="11" style="stroke:#181818;stroke-width:1.0;"/><path d="M213.9688,278.6406 Q213.3906,278.9375 212.75,279.0781 Q212.1094,279.2344 211.4063,279.2344 Q208.9063,279.2344 207.5781,277.5938 Q206.2656,275.9375 206.2656,272.8125 Q206.2656,269.6875 207.5781,268.0313 Q208.9063,266.375 211.4063,266.375 Q212.1094,266.375 212.75,266.5313 Q213.4063,266.6875 213.9688,266.9844 L213.9688,269.7031 Q213.3438,269.125 212.75,268.8594 Q212.1563,268.5781 211.5313,268.5781 Q210.1875,268.5781 209.5,269.6563 Q208.8125,270.7188 208.8125,272.8125 Q208.8125,274.9063 209.5,275.9844 Q210.1875,277.0469 211.5313,277.0469 Q212.1563,277.0469 212.75,276.7813 Q213.3438,276.5 213.9688,275.9219 L213.9688,278.6406 Z " fill="#000000"/><text fill="#000000" font-family="sans-serif" font-size="14" lengthAdjust="spacing" textLength="51.6387" x="225" y="277.8467">Horario</text><line style="stroke:#181818;stroke-width:0.5;" x1="197" x2="278.6387" y1="289" y2="289"/><line style="stroke:#181818;stroke-width:0.5;" x1="197" x2="278.6387" y1="297" y2="297"/></g><!--class Servicio--><g id="elem_Servicio"><rect codeLine="17" fill="#F1F1F1" height="48" id="Servicio" rx="2.5" ry="2.5" style="stroke:#181818;stroke-width:0.5;" width="87.583" x="194" y="382"/><ellipse cx="209" cy="398" fill="#ADD1B2" rx="11" ry="11" style="stroke:#181818;stroke-width:1.0;"/><path d="M211.9688,403.6406 Q211.3906,403.9375 210.75,404.0781 Q210.1094,404.2344 209.4063,404.2344 Q206.9063,404.2344 205.5781,402.5938 Q204.2656,400.9375 204.2656,397.8125 Q204.2656,394.6875 205.5781,393.0313 Q206.9063,391.375 209.4063,391.375 Q210.1094,391.375 210.75,391.5313 Q211.4063,391.6875 211.9688,391.9844 L211.9688,394.7031 Q211.3438,394.125 210.75,393.8594 Q210.1563,393.5781 209.5313,393.5781 Q208.1875,393.5781 207.5,394.6563 Q206.8125,395.7188 206.8125,397.8125 Q206.8125,399.9063 207.5,400.9844 Q208.1875,402.0469 209.5313,402.0469 Q210.1563,402.0469 210.75,401.7813 Q211.3438,401.5 211.9688,400.9219 L211.9688,403.6406 Z " fill="#000000"/><text fill="#000000" font-family="sans-serif" font-size="14" lengthAdjust="spacing" textLength="55.583" x="223" y="402.8467">Servicio</text><line style="stroke:#181818;stroke-width:0.5;" x1="195" x2="280.583" y1="414" y2="414"/><line style="stroke:#181818;stroke-width:0.5;" x1="195" x2="280.583" y1="422" y2="422"/></g><!--class Tarifa--><g id="elem_Tarifa"><rect codeLine="20" fill="#F1F1F1" height="48" id="Tarifa" rx="2.5" ry="2.5" style="stroke:#181818;stroke-width:0.5;" width="72.2842" x="202" y="507"/><ellipse cx="217" cy="523" fill="#ADD1B2" rx="11" ry="11" style="stroke:#181818;stroke-width:1.0;"/><path d="M219.9688,528.6406 Q219.3906,528.9375 218.75,529.0781 Q218.1094,529.2344 217.4063,529.2344 Q214.9063,529.2344 213.5781,527.5938 Q212.2656,525.9375 212.2656,522.8125 Q212.2656,519.6875 213.5781,518.0313 Q214.9063,516.375 217.4063,516.375 Q218.1094,516.375 218.75,516.5313 Q219.4063,516.6875 219.9688,516.9844 L219.9688,519.7031 Q219.3438,519.125 218.75,518.8594 Q218.1563,518.5781 217.5313,518.5781 Q216.1875,518.5781 215.5,519.6563 Q214.8125,520.7188 214.8125,522.8125 Q214.8125,524.9063 215.5,525.9844 Q216.1875,527.0469 217.5313,527.0469 Q218.1563,527.0469 218.75,526.7813 Q219.3438,526.5 219.9688,525.9219 L219.9688,528.6406 Z " fill="#000000"/><text fill="#000000" font-family="sans-serif" font-size="14" lengthAdjust="spacing" textLength="40.2842" x="231" y="527.8467">Tarifa</text><line style="stroke:#181818;stroke-width:0.5;" x1="203" x2="273.2842" y1="539" y2="539"/><line style="stroke:#181818;stroke-width:0.5;" x1="203" x2="273.2842" y1="547" y2="547"/></g><!--link Vehiculo to Conductor--><g id="link_Vehiculo_Conductor"><path codeLine="24" d="M146.24,55.25 C134.87,64 122.38,74.4 112,85 C97.92,99.38 87.7029,112.6191 77.7829,126.8391 " fill="none" id="Vehiculo-to-Conductor" style="stroke:#181818;stroke-width:1.0;"/><polygon fill="#181818" points="74.35,131.76,82.7799,126.6672,77.2107,127.6592,76.2187,122.09,74.35,131.76" style="stroke:#181818;stroke-width:1.0;"/><text fill="#000000" font-family="sans-serif" font-size="13" lengthAdjust="spacing" textLength="54.8311" x="113" y="98.0669">necesita</text></g><!--link Vehiculo to Ruta--><g id="link_Vehiculo_Ruta"><path codeLine="25" d="M177.19,55.01 C176.32,68.66 175.56,86.31 176,102 C176.28,111.77 176.4778,116.5409 177.0378,125.8009 " fill="none" id="Vehiculo-to-Ruta" style="stroke:#181818;stroke-width:1.0;"/><polygon fill="#181818" points="177.4,131.79,180.8494,122.565,177.0982,126.7991,172.864,123.0479,177.4,131.79" style="stroke:#181818;stroke-width:1.0;"/><text fill="#000000" font-family="sans-serif" font-size="13" lengthAdjust="spacing" textLength="77.4541" x="177" y="98.0669">se le asigna</text></g><!--link Vehiculo to Incidencia--><g id="link_Vehiculo_Incidencia"><path codeLine="26" d="M221.78,55.01 C234.75,63.31 248.36,73.51 259,85 C271.67,98.68 279.2395,111.7751 285.9795,126.3351 " fill="none" id="Vehiculo-to-Incidencia" style="stroke:#181818;stroke-width:1.0;"/><polygon fill="#181818" points="288.5,131.78,288.3492,121.9323,286.3996,127.2426,281.0893,125.293,288.5,131.78" style="stroke:#181818;stroke-width:1.0;"/><text fill="#000000" font-family="sans-serif" font-size="13" lengthAdjust="spacing" textLength="79.5488" x="273" y="98.0669">puede tener</text></g><!--link Incidencia to Horario--><g id="link_Incidencia_Horario"><path codeLine="27" d="M286.71,180.14 C275.99,202.13 262.5821,229.6181 251.8621,251.5781 " fill="none" id="Incidencia-to-Horario" style="stroke:#181818;stroke-width:1.0;"/><polygon fill="#181818" points="249.23,256.97,256.7727,250.6369,251.4234,252.4768,249.5836,247.1275,249.23,256.97" style="stroke:#181818;stroke-width:1.0;"/><text fill="#000000" font-family="sans-serif" font-size="13" lengthAdjust="spacing" textLength="56.4624" x="273" y="223.0669">afecta al</text></g><!--link Ruta to Horario--><g id="link_Ruta_Horario"><path codeLine="28" d="M188.32,180.27 C193.98,194.01 201.54,211.66 209,227 C213.82,236.9 216.6437,242.3564 221.7437,251.5264 " fill="none" id="Ruta-to-Horario" style="stroke:#181818;stroke-width:1.0;"/><polygon fill="#181818" points="224.66,256.77,223.7813,246.9604,222.2298,252.4003,216.7898,250.8488,224.66,256.77" style="stroke:#181818;stroke-width:1.0;"/><text fill="#000000" font-family="sans-serif" font-size="13" lengthAdjust="spacing" textLength="32.9443" x="210" y="223.0669">tiene</text></g><!--link Horario to Servicio--><g id="link_Horario_Servicio"><path codeLine="29" d="M238,305.14 C238,327.13 238,354.01 238,375.97 " fill="none" id="Horario-to-Servicio" style="stroke:#181818;stroke-width:1.0;"/><polygon fill="#181818" points="238,381.97,242,372.97,238,376.97,234,372.97,238,381.97" style="stroke:#181818;stroke-width:1.0;"/><text fill="#000000" font-family="sans-serif" font-size="13" lengthAdjust="spacing" textLength="71.6079" x="239" y="348.0669">dividido en</text></g><!--link Servicio to Tarifa--><g id="link_Servicio_Tarifa"><path codeLine="30" d="M238,430.14 C238,452.13 238,479.01 238,500.97 " fill="none" id="Servicio-to-Tarifa" style="stroke:#181818;stroke-width:1.0;"/><polygon fill="#181818" points="238,506.97,242,497.97,238,501.97,234,497.97,238,506.97" style="stroke:#181818;stroke-width:1.0;"/><text fill="#000000" font-family="sans-serif" font-size="13" lengthAdjust="spacing" textLength="32.9443" x="239" y="473.0669">tiene</text></g><!--SRC=[NOyz3i8m38Ltdy8Nw0KOM5XW1SGU9Iwr598gFvKGukuujA4fYoM_z_dP7jWGqcDCJpGKTU0niNUWhOeHRpImpjQ_0DwBTF3EP9ryQBHpJgffJqvBg9HMFFgW0hT95meJwurq5QIVfw3kngxRhrjnXuuqHKvgIvGRn8o4bb15lhi_OBrAi36Jl9t8KO36ADnog42g9osXoi8tV6icbc6eVV7gFs8QdjYmyKWEVd9XvWVh-0S0]--></g></svg>