<svg xmlns="http://www.w3.org/2000/svg" xmlns:xlink="http://www.w3.org/1999/xlink" contentStyleType="text/css" height="723px" preserveAspectRatio="none" style="width:538px;height:723px;background:#FFFFFF;" version="1.1" viewBox="0 0 538 723" width="538px" zoomAndPan="magnify"><defs/><g><ellipse cx="234" cy="16" fill="#222222" rx="10" ry="10" style="stroke:#222222;stroke-width:1.0;"/><rect fill="#F1F1F1" height="40" rx="12.5" ry="12.5" style="stroke:#181818;stroke-width:0.5;" width="162.7148" x="152.5" y="103"/><text fill="#000000" font-family="sans-serif" font-size="14" lengthAdjust="spacing" textLength="152.7148" x="157.5" y="127.8467">DetectandoIncidencia</text><rect fill="#F1F1F1" height="40" rx="12.5" ry="12.5" style="stroke:#181818;stroke-width:0.5;" width="140.8125" x="163.5" y="220"/><text fill="#000000" font-family="sans-serif" font-size="14" lengthAdjust="spacing" textLength="130.8125" x="168.5" y="244.8467">NotificandoCentral</text><rect fill="#F1F1F1" height="40" rx="12.5" ry="12.5" style="stroke:#181818;stroke-width:0.5;" width="142.6172" x="162.5" y="337"/><text fill="#000000" font-family="sans-serif" font-size="14" lengthAdjust="spacing" textLength="132.6172" x="167.5" y="361.8467">EvaluandoSolucion</text><rect fill="#F1F1F1" height="40" rx="12.5" ry="12.5" style="stroke:#181818;stroke-width:0.5;" width="86.4668" x="7" y="454"/><text fill="#000000" font-family="sans-serif" font-size="14" lengthAdjust="spacing" textLength="76.4668" x="12" y="478.8467">Reparando</text><rect fill="#F1F1F1" height="40" rx="12.5" ry="12.5" style="stroke:#181818;stroke-width:0.5;" width="174.7666" x="146.5" y="454"/><text fill="#000000" font-family="sans-serif" font-size="14" lengthAdjust="spacing" textLength="164.7666" x="151.5" y="478.8467">ReemplazandoVehivulo</text><rect fill="#F1F1F1" height="40" rx="12.5" ry="12.5" style="stroke:#181818;stroke-width:0.5;" width="125.001" x="389.5" y="524"/><text fill="#000000" font-family="sans-serif" font-size="14" lengthAdjust="spacing" textLength="115.001" x="394.5" y="548.8467">CancelandoRuta</text><rect fill="#F1F1F1" height="40" rx="12.5" ry="12.5" style="stroke:#181818;stroke-width:0.5;" width="95.2031" x="21.5" y="594"/><text fill="#000000" font-family="sans-serif" font-size="14" lengthAdjust="spacing" textLength="85.2031" x="26.5" y="618.8467">Resolviendo</text><ellipse cx="234" cy="706" fill="none" rx="11" ry="11" style="stroke:#222222;stroke-width:1.0;"/><ellipse cx="234" cy="706" fill="#222222" rx="6" ry="6" style="stroke:#222222;stroke-width:1.0;"/><rect fill="#F1F1F1" height="40" rx="12.5" ry="12.5" style="stroke:#181818;stroke-width:0.5;" width="131.9121" x="168" y="594"/><text fill="#000000" font-family="sans-serif" font-size="14" lengthAdjust="spacing" textLength="121.9121" x="173" y="618.8467">ContinuandoRuta</text><!--link *start* to DetectandoIncidencia--><g id="link_*start*_DetectandoIncidencia"><path d="M234,26.32 C234,43.38 234,73.98 234,96.64 " fill="none" id="*start*-to-DetectandoIncidencia" style="stroke:#181818;stroke-width:1.0;"/><polygon fill="#181818" points="234,102.64,238,93.64,234,97.64,230,93.64,234,102.64" style="stroke:#181818;stroke-width:1.0;"/><text fill="#000000" font-family="sans-serif" font-size="13" lengthAdjust="spacing" textLength="142.0796" x="235" y="69.0669">Problema identificado</text></g><!--link DetectandoIncidencia to NotificandoCentral--><g id="link_DetectandoIncidencia_NotificandoCentral"><path d="M234,143.25 C234,164.48 234,192.44 234,213.69 " fill="none" id="DetectandoIncidencia-to-NotificandoCentral" style="stroke:#181818;stroke-width:1.0;"/><polygon fill="#181818" points="234,219.69,238,210.69,234,214.69,230,210.69,234,219.69" style="stroke:#181818;stroke-width:1.0;"/><text fill="#000000" font-family="sans-serif" font-size="13" lengthAdjust="spacing" textLength="136.9443" x="235" y="186.0669">Central es informada</text></g><!--link NotificandoCentral to EvaluandoSolucion--><g id="link_NotificandoCentral_EvaluandoSolucion"><path d="M234,260.25 C234,281.48 234,309.44 234,330.69 " fill="none" id="NotificandoCentral-to-EvaluandoSolucion" style="stroke:#181818;stroke-width:1.0;"/><polygon fill="#181818" points="234,336.69,238,327.69,234,331.69,230,327.69,234,336.69" style="stroke:#181818;stroke-width:1.0;"/><text fill="#000000" font-family="sans-serif" font-size="13" lengthAdjust="spacing" textLength="176.2998" x="235" y="303.0669">Central determina soluci&#243;n</text></g><!--link EvaluandoSolucion to Reparando--><g id="link_EvaluandoSolucion_Reparando"><path d="M162.28,365.63 C131.77,372.2 97.8,384.39 74,407 C61.09,419.26 56.2072,433.103 53.4472,447.803 " fill="none" id="EvaluandoSolucion-to-Reparando" style="stroke:#181818;stroke-width:1.0;"/><polygon fill="#181818" points="52.34,453.7,57.9321,445.5927,53.2627,448.7859,50.0695,444.1164,52.34,453.7" style="stroke:#181818;stroke-width:1.0;"/><text fill="#000000" font-family="sans-serif" font-size="13" lengthAdjust="spacing" textLength="147.1704" x="75" y="420.0669">Reparaci&#243;n en el lugar</text></g><!--link EvaluandoSolucion to ReemplazandoVehivulo--><g id="link_EvaluandoSolucion_ReemplazandoVehivulo"><path d="M232.37,377.06 C231.43,390.24 230.52,408.18 231,424 C231.3,433.88 231.5469,438.8836 232.1569,447.9436 " fill="none" id="EvaluandoSolucion-to-ReemplazandoVehivulo" style="stroke:#181818;stroke-width:1.0;"/><polygon fill="#181818" points="232.56,453.93,235.9464,444.6816,232.2241,448.9413,227.9644,445.219,232.56,453.93" style="stroke:#181818;stroke-width:1.0;"/><text fill="#000000" font-family="sans-serif" font-size="13" lengthAdjust="spacing" textLength="179.5879" x="232" y="420.0669">Env&#237;o de un nuevo veh&#237;culo</text></g><!--link EvaluandoSolucion to CancelandoRuta--><g id="link_EvaluandoSolucion_CancelandoRuta"><path d="M305.53,360.59 C343.07,365.65 387.14,378.02 416,407 C447.54,438.67 452.339,488.5601 452.539,517.8601 " fill="none" id="EvaluandoSolucion-to-CancelandoRuta" style="stroke:#181818;stroke-width:1.0;"/><polygon fill="#181818" points="452.58,523.86,456.5185,514.8329,452.5459,518.8601,448.5187,514.8875,452.58,523.86" style="stroke:#181818;stroke-width:1.0;"/><text fill="#000000" font-family="sans-serif" font-size="13" lengthAdjust="spacing" textLength="100.7627" x="430" y="420.0669">Ruta cancelada</text></g><!--link Reparando to Resolviendo--><g id="link_Reparando_Resolviendo"><path d="M52.64,494.19 C56.27,520.55 61.9409,561.7562 65.5609,588.0262 " fill="none" id="Reparando-to-Resolviendo" style="stroke:#181818;stroke-width:1.0;"/><polygon fill="#181818" points="66.38,593.97,69.114,584.5082,65.6975,589.0168,61.1889,585.6003,66.38,593.97" style="stroke:#181818;stroke-width:1.0;"/><text fill="#000000" font-family="sans-serif" font-size="13" lengthAdjust="spacing" textLength="137.1855" x="63" y="548.5669">Reparaci&#243;n realizada</text></g><!--link Resolviendo to *end*--><g id="link_Resolviendo_*end*"><path d="M103.99,634.09 C142.4,655.04 196.3721,684.4779 219.2621,696.9579 " fill="none" id="Resolviendo-to-*end*" style="stroke:#181818;stroke-width:1.0;"/><polygon fill="#181818" points="224.53,699.83,218.5429,692.0098,220.1401,697.4365,214.7134,699.0337,224.53,699.83" style="stroke:#181818;stroke-width:1.0;"/></g><!--link ReemplazandoVehivulo to ContinuandoRuta--><g id="link_ReemplazandoVehivulo_ContinuandoRuta"><path d="M230.08,494.46 C228.47,503.42 226.79,514.21 226,524 C224.56,541.72 224.56,546.28 226,564 C226.79,573.79 227.4089,578.6746 229.0189,587.6346 " fill="none" id="ReemplazandoVehivulo-to-ContinuandoRuta" style="stroke:#181818;stroke-width:1.0;"/><polygon fill="#181818" points="230.08,593.54,232.4253,583.9744,229.1957,588.6188,224.5514,585.3893,230.08,593.54" style="stroke:#181818;stroke-width:1.0;"/><text fill="#000000" font-family="sans-serif" font-size="13" lengthAdjust="spacing" textLength="144.2886" x="227" y="548.5669">Pasajeros transferidos</text></g><!--link ContinuandoRuta to *end*--><g id="link_ContinuandoRuta_*end*"><path d="M234,634.09 C234,652.66 234,674.17 234,688.87 " fill="none" id="ContinuandoRuta-to-*end*" style="stroke:#181818;stroke-width:1.0;"/><polygon fill="#181818" points="234,694.87,238,685.87,234,689.87,230,685.87,234,694.87" style="stroke:#181818;stroke-width:1.0;"/></g><!--link CancelandoRuta to *end*--><g id="link_CancelandoRuta_*end*"><path d="M425.7,564.3 C376.56,600.37 277.8275,672.8406 247.4075,695.1606 " fill="none" id="CancelandoRuta-to-*end*" style="stroke:#181818;stroke-width:1.0;"/><polygon fill="#181818" points="242.57,698.71,252.1926,696.6109,246.6013,695.7521,247.46,690.1609,242.57,698.71" style="stroke:#181818;stroke-width:1.0;"/></g><!--SRC=[TL6xRiCm3Dpr5PmBv0SwT4apT2c25EXIT60bkbOXYuOU1ff_ojHFy8-Lj1lKI1n0a8JZtV54jTuHKDUNRt2KRV9zyHoDURjxXytc0Hwfa2qO7Jz5ArpP4EvXd_WZK8UWKF6Dj-ZOh9BLvPbdZbIsmayOnEDyemm-DfmwT6XMc6gm6p1K1LyuL2i95tedNLFd8qAUYkEFvByMgCs1UaoAYdo-JtGWMG52_SHqKob32dZKmYkrVgX1JNPn64yi4Q16Y9K6Xe7QyMIbVCDfYz5IKFXGYyvoEkoCoWJCVyYviRngy7GTEX46VrJ9agCQ-Jop6dZgp_9XiIu2x37Z5oNE8FECkQ7a7MTpIJmxcuiN_E6_]--></g></svg>