<svg xmlns="http://www.w3.org/2000/svg" xmlns:xlink="http://www.w3.org/1999/xlink" contentStyleType="text/css" height="500px" preserveAspectRatio="none" style="width:908px;height:500px;background:#FFFFFF;" version="1.1" viewBox="0 0 908 500" width="908px" zoomAndPan="magnify"><defs/><g><ellipse cx="370.5" cy="16" fill="#222222" rx="10" ry="10" style="stroke:#222222;stroke-width:1.0;"/><rect fill="#F1F1F1" height="40" rx="12.5" ry="12.5" style="stroke:#181818;stroke-width:0.5;" width="129.417" x="306" y="103"/><text fill="#000000" font-family="sans-serif" font-size="14" lengthAdjust="spacing" textLength="119.417" x="311" y="127.8467">SaliendoEstacion</text><rect fill="#F1F1F1" height="40" rx="12.5" ry="12.5" style="stroke:#181818;stroke-width:0.5;" width="60.3877" x="340.5" y="220"/><text fill="#000000" font-family="sans-serif" font-size="14" lengthAdjust="spacing" textLength="50.3877" x="345.5" y="244.8467">EnRuta</text><rect fill="#F1F1F1" height="40" rx="12.5" ry="12.5" style="stroke:#181818;stroke-width:0.5;" width="135.2891" x="7" y="337"/><text fill="#000000" font-family="sans-serif" font-size="14" lengthAdjust="spacing" textLength="125.2891" x="12" y="361.8467">ParadaIntermedia</text><rect fill="#F1F1F1" height="40" rx="12.5" ry="12.5" style="stroke:#181818;stroke-width:0.5;" width="81.1279" x="336" y="337"/><text fill="#000000" font-family="sans-serif" font-size="14" lengthAdjust="spacing" textLength="71.1279" x="341" y="361.8467">Incidencia</text><rect fill="#F1F1F1" height="40" rx="12.5" ry="12.5" style="stroke:#181818;stroke-width:0.5;" width="169.6055" x="396.5" y="454"/><text fill="#000000" font-family="sans-serif" font-size="14" lengthAdjust="spacing" textLength="159.6055" x="401.5" y="478.8467">GestionandoIncidencia</text><rect fill="#F1F1F1" height="40" rx="12.5" ry="12.5" style="stroke:#181818;stroke-width:0.5;" width="138.3789" x="764.5" y="337"/><text fill="#000000" font-family="sans-serif" font-size="14" lengthAdjust="spacing" textLength="128.3789" x="769.5" y="361.8467">VolviendoEstacion</text><ellipse cx="833.5" cy="474" fill="none" rx="11" ry="11" style="stroke:#222222;stroke-width:1.0;"/><ellipse cx="833.5" cy="474" fill="#222222" rx="6" ry="6" style="stroke:#222222;stroke-width:1.0;"/><!--link *start* to SaliendoEstacion--><g id="link_*start*_SaliendoEstacion"><path d="M370.5,26.32 C370.5,43.38 370.5,73.98 370.5,96.64 " fill="none" id="*start*-to-SaliendoEstacion" style="stroke:#181818;stroke-width:1.0;"/><polygon fill="#181818" points="370.5,102.64,374.5,93.64,370.5,97.64,366.5,93.64,370.5,102.64" style="stroke:#181818;stroke-width:1.0;"/><text fill="#000000" font-family="sans-serif" font-size="13" lengthAdjust="spacing" textLength="110.8237" x="371.5" y="69.0669">Comienza la ruta</text></g><!--link SaliendoEstacion to EnRuta--><g id="link_SaliendoEstacion_EnRuta"><path d="M370.5,143.25 C370.5,164.48 370.5,192.44 370.5,213.69 " fill="none" id="SaliendoEstacion-to-EnRuta" style="stroke:#181818;stroke-width:1.0;"/><polygon fill="#181818" points="370.5,219.69,374.5,210.69,370.5,214.69,366.5,210.69,370.5,219.69" style="stroke:#181818;stroke-width:1.0;"/><text fill="#000000" font-family="sans-serif" font-size="13" lengthAdjust="spacing" textLength="127.2769" x="371.5" y="186.0669">Autob&#250;s en marcha</text></g><!--link EnRuta to ParadaIntermedia--><g id="link_EnRuta_ParadaIntermedia"><path d="M340.26,245.49 C301.22,251.98 231.76,265.93 176.5,290 C148.27,302.3 123.8855,318.4743 104.0055,333.1643 " fill="none" id="EnRuta-to-ParadaIntermedia" style="stroke:#181818;stroke-width:1.0;"/><polygon fill="#181818" points="99.18,336.73,108.7954,334.5984,103.2013,333.7586,104.0411,328.1644,99.18,336.73" style="stroke:#181818;stroke-width:1.0;"/><text fill="#000000" font-family="sans-serif" font-size="13" lengthAdjust="spacing" textLength="181.1431" x="177.5" y="303.0669">Llega a parada programada</text></g><!--link ParadaIntermedia to EnRuta--><g id="link_ParadaIntermedia_EnRuta"><path d="M48.14,336.9 C32.43,323.21 17.79,304.68 30.5,290 C70.57,243.74 258.9501,240.1282 334.4401,240.5282 " fill="none" id="ParadaIntermedia-to-EnRuta" style="stroke:#181818;stroke-width:1.0;"/><polygon fill="#181818" points="340.44,240.56,331.4613,236.5124,335.4401,240.5335,331.4189,244.5123,340.44,240.56" style="stroke:#181818;stroke-width:1.0;"/><text fill="#000000" font-family="sans-serif" font-size="13" lengthAdjust="spacing" textLength="104.9141" x="31.5" y="303.0669">Contin&#250;a la ruta</text></g><!--link EnRuta to Incidencia--><g id="link_EnRuta_Incidencia"><path d="M368.26,260.09 C367.05,273.29 366.06,291.24 367.5,307 C368.39,316.82 369.0907,321.7291 370.9007,330.6791 " fill="none" id="EnRuta-to-Incidencia" style="stroke:#181818;stroke-width:1.0;"/><polygon fill="#181818" points="372.09,336.56,374.2266,326.9457,371.0989,331.6592,366.3854,328.5315,372.09,336.56" style="stroke:#181818;stroke-width:1.0;"/><text fill="#000000" font-family="sans-serif" font-size="13" lengthAdjust="spacing" textLength="185.98" x="368.5" y="303.0669">Aver&#237;a o problema de tr&#225;fico</text></g><!--link Incidencia to GestionandoIncidencia--><g id="link_Incidencia_GestionandoIncidencia"><path d="M376.74,377.1 C377.82,391.31 381.29,410.51 391.5,424 C401.06,436.63 409.5381,443.5811 423.4681,450.9611 " fill="none" id="Incidencia-to-GestionandoIncidencia" style="stroke:#181818;stroke-width:1.0;"/><polygon fill="#181818" points="428.77,453.77,422.6898,446.0221,424.3518,451.4292,418.9446,453.0912,428.77,453.77" style="stroke:#181818;stroke-width:1.0;"/><text fill="#000000" font-family="sans-serif" font-size="13" lengthAdjust="spacing" textLength="161.0337" x="392.5" y="420.0669">Resolviendo el problema</text></g><!--link GestionandoIncidencia to EnRuta--><g id="link_GestionandoIncidencia_EnRuta"><path d="M527.58,453.93 C539.83,446.49 551.56,436.64 558.5,424 C587.16,371.79 594.92,337.12 558.5,290 C539.32,265.18 454.7217,251.3199 406.6317,245.1799 " fill="none" id="GestionandoIncidencia-to-EnRuta" style="stroke:#181818;stroke-width:1.0;"/><polygon fill="#181818" points="400.68,244.42,409.1009,249.5276,405.6397,245.0532,410.1141,241.5921,400.68,244.42" style="stroke:#181818;stroke-width:1.0;"/><text fill="#000000" font-family="sans-serif" font-size="13" lengthAdjust="spacing" textLength="147.894" x="584.5" y="361.5669">Incidencia solucionada</text></g><!--link EnRuta to VolviendoEstacion--><g id="link_EnRuta_VolviendoEstacion"><path d="M400.85,246.51 C445.94,254.88 533.2,271.76 606.5,290 C663.25,304.12 721.4231,321.2127 766.9331,335.1527 " fill="none" id="EnRuta-to-VolviendoEstacion" style="stroke:#181818;stroke-width:1.0;"/><polygon fill="#181818" points="772.67,336.91,765.2361,330.4495,767.8892,335.4456,762.8931,338.0987,772.67,336.91" style="stroke:#181818;stroke-width:1.0;"/><text fill="#000000" font-family="sans-serif" font-size="13" lengthAdjust="spacing" textLength="111.8901" x="670.5" y="303.0669">Acaba ruta diaria</text></g><!--link VolviendoEstacion to *end*--><g id="link_VolviendoEstacion_*end*"><path d="M833.5,377.25 C833.5,401.93 833.5,437.82 833.5,456.94 " fill="none" id="VolviendoEstacion-to-*end*" style="stroke:#181818;stroke-width:1.0;"/><polygon fill="#181818" points="833.5,462.94,837.5,453.94,833.5,457.94,829.5,453.94,833.5,462.94" style="stroke:#181818;stroke-width:1.0;"/></g><!--SRC=[RL4xQWCn4ErrYga3la2AW34c65841zA45BFIn1ReiuoqXlWsFa0ku7OlbfdDJykc4KBlC- -DZjuHKEphEpWgbdrVVKx6lDoymcfr1qyOF2MNjwMY5GHkOPEZF9qH0W8F5Ss2ey9jsWiczFLGSpTU2r22Y6oFQBunfJqYeyDTgiIHd5V1Gw030a8_GT1pFZ16kPe5UJPearFrQRp-1Mi7xPALgd9CcKx4umT2LlSkK4Hf3vN7ovktsJHSbTvJqQMWL9ovxAdaS9gg0uLVA_C_VvQrUHUFGRUc1Tl0pp_UpUhN5hklRY3rsQDPibGhl_S9]--></g></svg>