<svg xmlns="http://www.w3.org/2000/svg" xmlns:xlink="http://www.w3.org/1999/xlink" contentStyleType="text/css" height="833px" preserveAspectRatio="none" style="width:278px;height:833px;background:#FFFFFF;" version="1.1" viewBox="0 0 278 833" width="278px" zoomAndPan="magnify"><defs/><g><ellipse cx="102.5" cy="16" fill="#222222" rx="10" ry="10" style="stroke:#222222;stroke-width:1.0;"/><rect fill="#F1F1F1" height="40" rx="12.5" ry="12.5" style="stroke:#181818;stroke-width:0.5;" width="86.9521" x="59" y="103"/><text fill="#000000" font-family="sans-serif" font-size="14" lengthAdjust="spacing" textLength="76.9521" x="64" y="127.8467">EnEstacion</text><rect fill="#F1F1F1" height="40" rx="12.5" ry="12.5" style="stroke:#181818;stroke-width:0.5;" width="75.4746" x="7" y="220"/><text fill="#000000" font-family="sans-serif" font-size="14" lengthAdjust="spacing" textLength="65.4746" x="12" y="244.8467">Subiendo</text><rect fill="#F1F1F1" height="40" rx="12.5" ry="12.5" style="stroke:#181818;stroke-width:0.5;" width="70.8125" x="66" y="337"/><text fill="#000000" font-family="sans-serif" font-size="14" lengthAdjust="spacing" textLength="60.8125" x="71" y="361.8467">Pagando</text><rect fill="#F1F1F1" height="40" rx="12.5" ry="12.5" style="stroke:#181818;stroke-width:0.5;" width="85.2773" x="59" y="454"/><text fill="#000000" font-family="sans-serif" font-size="14" lengthAdjust="spacing" textLength="75.2773" x="64" y="478.8467">EnAutob&#250;s</text><rect fill="#F1F1F1" height="40" rx="12.5" ry="12.5" style="stroke:#181818;stroke-width:0.5;" width="60.3877" x="71.5" y="571"/><text fill="#000000" font-family="sans-serif" font-size="14" lengthAdjust="spacing" textLength="50.3877" x="76.5" y="595.8467">EnRuta</text><rect fill="#F1F1F1" height="40" rx="12.5" ry="12.5" style="stroke:#181818;stroke-width:0.5;" width="66.9775" x="68" y="688"/><text fill="#000000" font-family="sans-serif" font-size="14" lengthAdjust="spacing" textLength="56.9775" x="73" y="712.8467">Bajando</text><ellipse cx="101.5" cy="816" fill="none" rx="11" ry="11" style="stroke:#222222;stroke-width:1.0;"/><ellipse cx="101.5" cy="816" fill="#222222" rx="6" ry="6" style="stroke:#222222;stroke-width:1.0;"/><!--link *start* to EnEstacion--><g id="link_*start*_EnEstacion"><path d="M102.5,26.32 C102.5,43.38 102.5,73.98 102.5,96.64 " fill="none" id="*start*-to-EnEstacion" style="stroke:#181818;stroke-width:1.0;"/><polygon fill="#181818" points="102.5,102.64,106.5,93.64,102.5,97.64,98.5,93.64,102.5,102.64" style="stroke:#181818;stroke-width:1.0;"/><text fill="#000000" font-family="sans-serif" font-size="13" lengthAdjust="spacing" textLength="125.6455" x="103.5" y="69.0669">Esperando autob&#250;s</text></g><!--link EnEstacion to Subiendo--><g id="link_EnEstacion_Subiendo"><path d="M68.92,143.11 C58.47,150.92 48.21,160.97 42.5,173 C35.57,187.6 35.7704,200.2435 38.3504,213.9535 " fill="none" id="EnEstacion-to-Subiendo" style="stroke:#181818;stroke-width:1.0;"/><polygon fill="#181818" points="39.46,219.85,41.7266,210.2655,38.5353,214.9362,33.8646,211.745,39.46,219.85" style="stroke:#181818;stroke-width:1.0;"/><text fill="#000000" font-family="sans-serif" font-size="13" lengthAdjust="spacing" textLength="89.0195" x="43.5" y="186.0669">Autob&#250;s llega</text></g><!--link Subiendo to Pagando--><g id="link_Subiendo_Pagando"><path d="M38.57,260.15 C35.43,273.87 33.5,292.4 40.5,307 C46.31,319.13 51.9142,325.6483 62.5342,333.4483 " fill="none" id="Subiendo-to-Pagando" style="stroke:#181818;stroke-width:1.0;"/><polygon fill="#181818" points="67.37,337,62.4841,328.4485,63.3401,334.0402,57.7484,334.8963,67.37,337" style="stroke:#181818;stroke-width:1.0;"/><text fill="#000000" font-family="sans-serif" font-size="13" lengthAdjust="spacing" textLength="91.8696" x="41.5" y="303.0669">Compra ticket</text></g><!--link Pagando to EnAutob?s--><g id="link_Pagando_EnAutob&#250;s"><path d="M101.5,377.25 C101.5,398.48 101.5,426.44 101.5,447.69 " fill="none" id="Pagando-to-EnAutob&#250;s" style="stroke:#181818;stroke-width:1.0;"/><polygon fill="#181818" points="101.5,453.69,105.5,444.69,101.5,448.69,97.5,444.69,101.5,453.69" style="stroke:#181818;stroke-width:1.0;"/><text fill="#000000" font-family="sans-serif" font-size="13" lengthAdjust="spacing" textLength="95.6719" x="102.5" y="420.0669">Pago realizado</text></g><!--link Pagando to EnEstacion--><g id="link_Pagando_EnEstacion"><path d="M120.12,336.67 C126.99,328.25 133.95,317.83 137.5,307 C156.05,250.41 155.68,229.71 137.5,173 C134.05,162.25 131.0136,156.5547 124.3336,148.1147 " fill="none" id="Pagando-to-EnEstacion" style="stroke:#181818;stroke-width:1.0;"/><polygon fill="#181818" points="120.61,143.41,123.059,152.9495,123.713,147.3306,129.332,147.9847,120.61,143.41" style="stroke:#181818;stroke-width:1.0;"/><text fill="#000000" font-family="sans-serif" font-size="13" lengthAdjust="spacing" textLength="100.2866" x="152.5" y="244.5669">No tiene dinero</text></g><!--link EnAutob?s to EnRuta--><g id="link_EnAutob&#250;s_EnRuta"><path d="M101.5,494.25 C101.5,515.48 101.5,543.44 101.5,564.69 " fill="none" id="EnAutob&#250;s-to-EnRuta" style="stroke:#181818;stroke-width:1.0;"/><polygon fill="#181818" points="101.5,570.69,105.5,561.69,101.5,565.69,97.5,561.69,101.5,570.69" style="stroke:#181818;stroke-width:1.0;"/><text fill="#000000" font-family="sans-serif" font-size="13" lengthAdjust="spacing" textLength="138.2583" x="102.5" y="537.0669">Autob&#250;s inicia la ruta</text></g><!--link EnRuta to Bajando--><g id="link_EnRuta_Bajando"><path d="M101.5,611.25 C101.5,632.48 101.5,660.44 101.5,681.69 " fill="none" id="EnRuta-to-Bajando" style="stroke:#181818;stroke-width:1.0;"/><polygon fill="#181818" points="101.5,687.69,105.5,678.69,101.5,682.69,97.5,678.69,101.5,687.69" style="stroke:#181818;stroke-width:1.0;"/><text fill="#000000" font-family="sans-serif" font-size="13" lengthAdjust="spacing" textLength="118.3711" x="102.5" y="654.0669">Llega a su destino</text></g><!--link Bajando to *end*--><g id="link_Bajando_*end*"><path d="M101.5,728.44 C101.5,751.03 101.5,781.45 101.5,798.96 " fill="none" id="Bajando-to-*end*" style="stroke:#181818;stroke-width:1.0;"/><polygon fill="#181818" points="101.5,804.96,105.5,795.96,101.5,799.96,97.5,795.96,101.5,804.96" style="stroke:#181818;stroke-width:1.0;"/><text fill="#000000" font-family="sans-serif" font-size="13" lengthAdjust="spacing" textLength="168.0288" x="102.5" y="771.0669">Pasajero baja del autob&#250;s</text></g><!--SRC=[NP2nRiCm34HtVSND0Vm37WgqXRSWADgnw41RHC9K4Gr97ffFozeVYmWxXf6LztWytaayWozZ-OFdF2GPYsXqxdltWwPvGHUxN6YeCxJeyiY9ebVGLBJ_lsMtqGt_cdfX0rgyBWX2u2EvLJ7iWuuqK-zw6HEXoF3BnJtcy-NLeRK5HM8ASYMlJzmcuK6h5KU6byX9tSPaPZ-dGjjm4cKGGY2aghW5CFQDpal6lJq0Gfwieo9HtKCqqAgoX9dEzIJwAbKkh1tT0G00]--></g></svg>