<svg xmlns="http://www.w3.org/2000/svg" xmlns:xlink="http://www.w3.org/1999/xlink" contentStyleType="text/css" height="562px" preserveAspectRatio="none" style="width:285px;height:562px;background:#FFFFFF;" version="1.1" viewBox="0 0 285 562" width="285px" zoomAndPan="magnify"><defs/><g><!--class Servicio--><g id="elem_Servicio"><rect codeLine="2" fill="#F1F1F1" height="48" id="Servicio" rx="2.5" ry="2.5" style="stroke:#181818;stroke-width:0.5;" width="87.583" x="131" y="132"/><ellipse cx="146" cy="148" fill="#ADD1B2" rx="11" ry="11" style="stroke:#181818;stroke-width:1.0;"/><path d="M148.9688,153.6406 Q148.3906,153.9375 147.75,154.0781 Q147.1094,154.2344 146.4063,154.2344 Q143.9063,154.2344 142.5781,152.5938 Q141.2656,150.9375 141.2656,147.8125 Q141.2656,144.6875 142.5781,143.0313 Q143.9063,141.375 146.4063,141.375 Q147.1094,141.375 147.75,141.5313 Q148.4063,141.6875 148.9688,141.9844 L148.9688,144.7031 Q148.3438,144.125 147.75,143.8594 Q147.1563,143.5781 146.5313,143.5781 Q145.1875,143.5781 144.5,144.6563 Q143.8125,145.7188 143.8125,147.8125 Q143.8125,149.9063 144.5,150.9844 Q145.1875,152.0469 146.5313,152.0469 Q147.1563,152.0469 147.75,151.7813 Q148.3438,151.5 148.9688,150.9219 L148.9688,153.6406 Z " fill="#000000"/><text fill="#000000" font-family="sans-serif" font-size="14" lengthAdjust="spacing" textLength="55.583" x="160" y="152.8467">Servicio</text><line style="stroke:#181818;stroke-width:0.5;" x1="132" x2="217.583" y1="164" y2="164"/><line style="stroke:#181818;stroke-width:0.5;" x1="132" x2="217.583" y1="172" y2="172"/></g><!--class Vehiculo--><g id="elem_Vehiculo"><rect codeLine="5" fill="#F1F1F1" height="48" id="Vehiculo" rx="2.5" ry="2.5" style="stroke:#181818;stroke-width:0.5;" width="91.9785" x="71" y="257"/><ellipse cx="86" cy="273" fill="#ADD1B2" rx="11" ry="11" style="stroke:#181818;stroke-width:1.0;"/><path d="M88.9688,278.6406 Q88.3906,278.9375 87.75,279.0781 Q87.1094,279.2344 86.4063,279.2344 Q83.9063,279.2344 82.5781,277.5938 Q81.2656,275.9375 81.2656,272.8125 Q81.2656,269.6875 82.5781,268.0313 Q83.9063,266.375 86.4063,266.375 Q87.1094,266.375 87.75,266.5313 Q88.4063,266.6875 88.9688,266.9844 L88.9688,269.7031 Q88.3438,269.125 87.75,268.8594 Q87.1563,268.5781 86.5313,268.5781 Q85.1875,268.5781 84.5,269.6563 Q83.8125,270.7188 83.8125,272.8125 Q83.8125,274.9063 84.5,275.9844 Q85.1875,277.0469 86.5313,277.0469 Q87.1563,277.0469 87.75,276.7813 Q88.3438,276.5 88.9688,275.9219 L88.9688,278.6406 Z " fill="#000000"/><text fill="#000000" font-family="sans-serif" font-size="14" lengthAdjust="spacing" textLength="59.9785" x="100" y="277.8467">Vehiculo</text><line style="stroke:#181818;stroke-width:0.5;" x1="72" x2="161.9785" y1="289" y2="289"/><line style="stroke:#181818;stroke-width:0.5;" x1="72" x2="161.9785" y1="297" y2="297"/></g><!--class Conductor--><g id="elem_Conductor"><rect codeLine="8" fill="#F1F1F1" height="48" id="Conductor" rx="2.5" ry="2.5" style="stroke:#181818;stroke-width:0.5;" width="104.4814" x="7" y="382"/><ellipse cx="22" cy="398" fill="#ADD1B2" rx="11" ry="11" style="stroke:#181818;stroke-width:1.0;"/><path d="M24.9688,403.6406 Q24.3906,403.9375 23.75,404.0781 Q23.1094,404.2344 22.4063,404.2344 Q19.9063,404.2344 18.5781,402.5938 Q17.2656,400.9375 17.2656,397.8125 Q17.2656,394.6875 18.5781,393.0313 Q19.9063,391.375 22.4063,391.375 Q23.1094,391.375 23.75,391.5313 Q24.4063,391.6875 24.9688,391.9844 L24.9688,394.7031 Q24.3438,394.125 23.75,393.8594 Q23.1563,393.5781 22.5313,393.5781 Q21.1875,393.5781 20.5,394.6563 Q19.8125,395.7188 19.8125,397.8125 Q19.8125,399.9063 20.5,400.9844 Q21.1875,402.0469 22.5313,402.0469 Q23.1563,402.0469 23.75,401.7813 Q24.3438,401.5 24.9688,400.9219 L24.9688,403.6406 Z " fill="#000000"/><text fill="#000000" font-family="sans-serif" font-size="14" lengthAdjust="spacing" textLength="72.4814" x="36" y="402.8467">Conductor</text><line style="stroke:#181818;stroke-width:0.5;" x1="8" x2="110.4814" y1="414" y2="414"/><line style="stroke:#181818;stroke-width:0.5;" x1="8" x2="110.4814" y1="422" y2="422"/></g><!--class Ruta--><g id="elem_Ruta"><rect codeLine="11" fill="#F1F1F1" height="48" id="Ruta" rx="2.5" ry="2.5" style="stroke:#181818;stroke-width:0.5;" width="64.6689" x="146.5" y="382"/><ellipse cx="161.5" cy="398" fill="#ADD1B2" rx="11" ry="11" style="stroke:#181818;stroke-width:1.0;"/><path d="M164.4688,403.6406 Q163.8906,403.9375 163.25,404.0781 Q162.6094,404.2344 161.9063,404.2344 Q159.4063,404.2344 158.0781,402.5938 Q156.7656,400.9375 156.7656,397.8125 Q156.7656,394.6875 158.0781,393.0313 Q159.4063,391.375 161.9063,391.375 Q162.6094,391.375 163.25,391.5313 Q163.9063,391.6875 164.4688,391.9844 L164.4688,394.7031 Q163.8438,394.125 163.25,393.8594 Q162.6563,393.5781 162.0313,393.5781 Q160.6875,393.5781 160,394.6563 Q159.3125,395.7188 159.3125,397.8125 Q159.3125,399.9063 160,400.9844 Q160.6875,402.0469 162.0313,402.0469 Q162.6563,402.0469 163.25,401.7813 Q163.8438,401.5 164.4688,400.9219 L164.4688,403.6406 Z " fill="#000000"/><text fill="#000000" font-family="sans-serif" font-size="14" lengthAdjust="spacing" textLength="32.6689" x="175.5" y="402.8467">Ruta</text><line style="stroke:#181818;stroke-width:0.5;" x1="147.5" x2="210.1689" y1="414" y2="414"/><line style="stroke:#181818;stroke-width:0.5;" x1="147.5" x2="210.1689" y1="422" y2="422"/></g><!--class Incidencia--><g id="elem_Incidencia"><rect codeLine="14" fill="#F1F1F1" height="48" id="Incidencia" rx="2.5" ry="2.5" style="stroke:#181818;stroke-width:0.5;" width="103.1279" x="123.5" y="7"/><ellipse cx="138.5" cy="23" fill="#ADD1B2" rx="11" ry="11" style="stroke:#181818;stroke-width:1.0;"/><path d="M141.4688,28.6406 Q140.8906,28.9375 140.25,29.0781 Q139.6094,29.2344 138.9063,29.2344 Q136.4063,29.2344 135.0781,27.5938 Q133.7656,25.9375 133.7656,22.8125 Q133.7656,19.6875 135.0781,18.0313 Q136.4063,16.375 138.9063,16.375 Q139.6094,16.375 140.25,16.5313 Q140.9063,16.6875 141.4688,16.9844 L141.4688,19.7031 Q140.8438,19.125 140.25,18.8594 Q139.6563,18.5781 139.0313,18.5781 Q137.6875,18.5781 137,19.6563 Q136.3125,20.7188 136.3125,22.8125 Q136.3125,24.9063 137,25.9844 Q137.6875,27.0469 139.0313,27.0469 Q139.6563,27.0469 140.25,26.7813 Q140.8438,26.5 141.4688,25.9219 L141.4688,28.6406 Z " fill="#000000"/><text fill="#000000" font-family="sans-serif" font-size="14" lengthAdjust="spacing" textLength="71.1279" x="152.5" y="27.8467">Incidencia</text><line style="stroke:#181818;stroke-width:0.5;" x1="124.5" x2="225.6279" y1="39" y2="39"/><line style="stroke:#181818;stroke-width:0.5;" x1="124.5" x2="225.6279" y1="47" y2="47"/></g><!--class Horario--><g id="elem_Horario"><rect codeLine="17" fill="#F1F1F1" height="48" id="Horario" rx="2.5" ry="2.5" style="stroke:#181818;stroke-width:0.5;" width="83.6387" x="137" y="507"/><ellipse cx="152" cy="523" fill="#ADD1B2" rx="11" ry="11" style="stroke:#181818;stroke-width:1.0;"/><path d="M154.9688,528.6406 Q154.3906,528.9375 153.75,529.0781 Q153.1094,529.2344 152.4063,529.2344 Q149.9063,529.2344 148.5781,527.5938 Q147.2656,525.9375 147.2656,522.8125 Q147.2656,519.6875 148.5781,518.0313 Q149.9063,516.375 152.4063,516.375 Q153.1094,516.375 153.75,516.5313 Q154.4063,516.6875 154.9688,516.9844 L154.9688,519.7031 Q154.3438,519.125 153.75,518.8594 Q153.1563,518.5781 152.5313,518.5781 Q151.1875,518.5781 150.5,519.6563 Q149.8125,520.7188 149.8125,522.8125 Q149.8125,524.9063 150.5,525.9844 Q151.1875,527.0469 152.5313,527.0469 Q153.1563,527.0469 153.75,526.7813 Q154.3438,526.5 154.9688,525.9219 L154.9688,528.6406 Z " fill="#000000"/><text fill="#000000" font-family="sans-serif" font-size="14" lengthAdjust="spacing" textLength="51.6387" x="166" y="527.8467">Horario</text><line style="stroke:#181818;stroke-width:0.5;" x1="138" x2="219.6387" y1="539" y2="539"/><line style="stroke:#181818;stroke-width:0.5;" x1="138" x2="219.6387" y1="547" y2="547"/></g><!--class Tarifa--><g id="elem_Tarifa"><rect codeLine="20" fill="#F1F1F1" height="48" id="Tarifa" rx="2.5" ry="2.5" style="stroke:#181818;stroke-width:0.5;" width="72.2842" x="198" y="257"/><ellipse cx="213" cy="273" fill="#ADD1B2" rx="11" ry="11" style="stroke:#181818;stroke-width:1.0;"/><path d="M215.9688,278.6406 Q215.3906,278.9375 214.75,279.0781 Q214.1094,279.2344 213.4063,279.2344 Q210.9063,279.2344 209.5781,277.5938 Q208.2656,275.9375 208.2656,272.8125 Q208.2656,269.6875 209.5781,268.0313 Q210.9063,266.375 213.4063,266.375 Q214.1094,266.375 214.75,266.5313 Q215.4063,266.6875 215.9688,266.9844 L215.9688,269.7031 Q215.3438,269.125 214.75,268.8594 Q214.1563,268.5781 213.5313,268.5781 Q212.1875,268.5781 211.5,269.6563 Q210.8125,270.7188 210.8125,272.8125 Q210.8125,274.9063 211.5,275.9844 Q212.1875,277.0469 213.5313,277.0469 Q214.1563,277.0469 214.75,276.7813 Q215.3438,276.5 215.9688,275.9219 L215.9688,278.6406 Z " fill="#000000"/><text fill="#000000" font-family="sans-serif" font-size="14" lengthAdjust="spacing" textLength="40.2842" x="227" y="277.8467">Tarifa</text><line style="stroke:#181818;stroke-width:0.5;" x1="199" x2="269.2842" y1="289" y2="289"/><line style="stroke:#181818;stroke-width:0.5;" x1="199" x2="269.2842" y1="297" y2="297"/></g><!--link Vehiculo to Ruta--><g id="link_Vehiculo_Ruta"><path codeLine="23" d="M128.66,305.14 C139.75,327.13 153.6192,354.6522 164.6892,376.6122 " fill="none" id="Vehiculo-to-Ruta" style="stroke:#181818;stroke-width:1.0;"/><polygon fill="#181818" points="167.39,381.97,166.9106,372.1328,165.1393,377.5052,159.7669,375.7339,167.39,381.97" style="stroke:#181818;stroke-width:1.0;"/><text fill="#000000" font-family="sans-serif" font-size="13" lengthAdjust="spacing" textLength="63.4512" x="153" y="348.0669">sigue una</text></g><!--link Ruta to Horario--><g id="link_Ruta_Horario"><path codeLine="24" d="M179,430.14 C179,452.13 179,479.01 179,500.97 " fill="none" id="Ruta-to-Horario" style="stroke:#181818;stroke-width:1.0;"/><polygon fill="#181818" points="179,506.97,183,497.97,179,501.97,175,497.97,179,506.97" style="stroke:#181818;stroke-width:1.0;"/><text fill="#000000" font-family="sans-serif" font-size="13" lengthAdjust="spacing" textLength="82.5957" x="180" y="473.0669">se realiza en</text></g><!--link Servicio to Tarifa--><g id="link_Servicio_Tarifa"><path codeLine="25" d="M186.1,180.14 C196.65,202.13 209.8258,229.5998 220.3558,251.5598 " fill="none" id="Servicio-to-Tarifa" style="stroke:#181818;stroke-width:1.0;"/><polygon fill="#181818" points="222.95,256.97,222.6654,247.1253,220.7881,252.4615,215.4519,250.5842,222.95,256.97" style="stroke:#181818;stroke-width:1.0;"/><text fill="#000000" font-family="sans-serif" font-size="13" lengthAdjust="spacing" textLength="67.1328" x="210" y="223.0669">aplica una</text></g><!--link Incidencia to Servicio--><g id="link_Incidencia_Servicio"><path codeLine="26" d="M175,55.14 C175,77.13 175,104.01 175,125.97 " fill="none" id="Incidencia-to-Servicio" style="stroke:#181818;stroke-width:1.0;"/><polygon fill="#181818" points="175,131.97,179,122.97,175,126.97,171,122.97,175,131.97" style="stroke:#181818;stroke-width:1.0;"/><text fill="#000000" font-family="sans-serif" font-size="13" lengthAdjust="spacing" textLength="52.8506" x="176" y="98.0669">afecta a</text></g><!--link Servicio to Vehiculo--><g id="link_Servicio_Vehiculo"><path codeLine="27" d="M150.77,180.17 C143.02,188.84 135.13,199.21 130,210 C123.05,224.62 120.4498,236.6442 118.9398,250.7242 " fill="none" id="Servicio-to-Vehiculo" style="stroke:#181818;stroke-width:1.0;"/><polygon fill="#181818" points="118.3,256.69,123.2369,248.1678,118.8332,251.7185,115.2825,247.3148,118.3,256.69" style="stroke:#181818;stroke-width:1.0;"/><text fill="#000000" font-family="sans-serif" font-size="13" lengthAdjust="spacing" textLength="59.5728" x="131" y="223.0669">utiliza un</text></g><!--link Vehiculo to Conductor--><g id="link_Vehiculo_Conductor"><path codeLine="28" d="M81.15,305.03 C71.48,313.22 62.26,323.34 57,335 C50.4,349.63 50.1943,361.855 52.4543,376.015 " fill="none" id="Vehiculo-to-Conductor" style="stroke:#181818;stroke-width:1.0;"/><polygon fill="#181818" points="53.4,381.94,55.9315,372.422,52.612,377.0025,48.0315,373.6829,53.4,381.94" style="stroke:#181818;stroke-width:1.0;"/><text fill="#000000" font-family="sans-serif" font-size="13" lengthAdjust="spacing" textLength="75.4419" x="58" y="348.0669">necesita un</text></g><!--SRC=[LP0z3i8m34RtdC8Nw0KoiB302eZTSbrgAIHLVf0eukuafOHcYPJdJ-zpCahFmFSfFg7dG5wcACugCXW2dDa_XCJ1IxtLoguy2YNJiBspVQBe_1QUKiJj_MWfT-MZeGVdqRSDbmo6DLJRkcxtDMe8SaiCoQ9QG9dyB7d8u1cDp0XiLNr02QrU3JWP8LmCcwLAfEPpQ63ATcmTTHyDASfIasoxvVypD5Wc3X9Bw0C0]--></g></svg>